<?xml version="1.0" standalone="no"?>
<!DOCTYPE svg PUBLIC "-//W3C//DTD SVG 20010904//EN"
 "http://www.w3.org/TR/2001/REC-SVG-20010904/DTD/svg10.dtd">
<svg version="1.0" xmlns="http://www.w3.org/2000/svg"
 width="200.000000pt" height="80.000000pt" viewBox="0 0 200.000000 80.000000"
 preserveAspectRatio="xMidYMid meet">

<g transform="translate(0.000000,80.000000) scale(0.100000,-0.100000)"
fill="#003A97" stroke="none">
<path d="M361 734 c-174 -47 -287 -167 -306 -326 l-7 -57 68 20 c38 10 127 36
199 58 l130 38 3 142 c3 160 9 151 -87 125z"/>
<path d="M330 371 c-52 -16 -128 -38 -167 -50 l-73 -22 0 -124 c0 -124 0 -125
23 -125 33 0 132 35 183 65 76 45 135 138 149 238 9 56 14 55 -115 18z"/>
</g>
</svg>
