<?xml version="1.0" standalone="no"?>
<!DOCTYPE svg PUBLIC "-//W3C//DTD SVG 20010904//EN"
 "http://www.w3.org/TR/2001/REC-SVG-20010904/DTD/svg10.dtd">
<svg version="1.0" xmlns="http://www.w3.org/2000/svg"
 width="200.000000pt" height="80.000000pt" viewBox="0 0 200.000000 80.000000"
 preserveAspectRatio="xMidYMid meet">

<g transform="translate(0.000000,80.000000) scale(0.100000,-0.100000)"
fill="#003A97" stroke="none">
<path d="M361 734 c-174 -47 -287 -167 -306 -326 l-7 -57 68 20 c38 10 127 36
199 58 l130 38 3 142 c3 160 9 151 -87 125z"/>
<path fill="#333333" d="M640 522 c0 -5 18 -56 39 -113 37 -98 41 -104 69 -107 29 -3 31 0 57
70 15 40 34 88 41 107 19 47 18 53 -13 49 -25 -3 -31 -11 -53 -75 -14 -40 -27
-73 -30 -73 -3 0 -17 33 -31 73 -23 63 -29 72 -52 75 -15 2 -27 -1 -27 -6z"/>
<path fill="#333333" d="M1092 513 c2 -10 13 -19 26 -21 17 -3 22 2 22 17 0 16 -6 21 -26 21
-19 0 -25 -5 -22 -17z"/>
<path fill="#333333" d="M1587 465 c-20 -35 -37 -76 -37 -90 0 -24 2 -25 59 -25 54 0 60 -2
63 -22 2 -15 11 -24 26 -26 18 -3 22 1 22 21 0 14 7 27 15 31 8 3 15 12 15 20
0 7 -7 16 -15 20 -8 3 -15 15 -15 26 0 30 -47 28 -52 -2 -2 -17 -11 -24 -30
-26 -16 -2 -28 0 -28 3 0 4 16 34 35 66 19 33 35 62 35 65 0 2 -13 4 -28 4
-24 0 -33 -9 -65 -65z"/>
<path fill="#333333" d="M886 464 c-11 -10 -16 -34 -16 -74 0 -77 13 -90 90 -90 71 0 90 19
90 90 0 71 -19 90 -90 90 -40 0 -64 -5 -74 -16z m104 -75 l0 -50 -32 3 c-29 3
-33 7 -36 36 -5 49 3 62 38 62 29 0 30 -1 30 -51z"/>
<path fill="#333333" d="M1378 469 c-14 -8 -18 -24 -18 -79 0 -80 9 -90 84 -90 53 0 76 8 76
26 0 9 -17 14 -52 16 -29 2 -53 8 -53 13 0 6 24 11 53 13 l52 3 0 43 c0 23 -5
47 -12 54 -15 15 -106 15 -130 1z m92 -44 c0 -10 -10 -15 -30 -15 -20 0 -30 5
-30 15 0 10 10 15 30 15 20 0 30 -5 30 -15z"/>
<path fill="#333333" d="M1070 450 c0 -11 4 -20 10 -20 5 0 10 -28 12 -62 3 -57 5 -63 26 -66
21 -3 22 -1 22 82 l0 86 -35 0 c-28 0 -35 -4 -35 -20z"/>
<path fill="#333333" d="M1186 454 c-3 -9 -6 -42 -6 -74 0 -68 12 -80 79 -80 49 0 71 8 71 26
0 8 -16 14 -47 16 l-48 3 -3 43 -3 42 50 0 c44 0 51 3 51 20 0 18 -7 20 -69
20 -54 0 -70 -4 -75 -16z"/>
<path fill="#333333" d="M1772 394 c4 -92 15 -104 77 -88 26 7 43 8 50 1 5 -5 17 -7 25 -4 13
5 16 23 16 87 0 79 0 80 -25 80 -24 0 -25 -3 -25 -55 0 -50 -2 -56 -26 -65
-37 -15 -44 -6 -44 61 0 57 -1 59 -25 59 -26 0 -26 0 -23 -76z"/>
<path d="M330 371 c-52 -16 -128 -38 -167 -50 l-73 -22 0 -124 c0 -124 0 -125
23 -125 33 0 132 35 183 65 76 45 135 138 149 238 9 56 14 55 -115 18z"/>
</g>
</svg>
