<?xml version="1.0" standalone="no"?>
<!DOCTYPE svg PUBLIC "-//W3C//DTD SVG 20010904//EN"
 "http://www.w3.org/TR/2001/REC-SVG-20010904/DTD/svg10.dtd">
<svg version="1.0" xmlns="http://www.w3.org/2000/svg"
 width="200.000000pt" height="90.000000pt" viewBox="0 0 200.000000 90.000000"
 preserveAspectRatio="xMidYMid meet">

<g transform="translate(0.000000,90.000000) scale(0.100000,-0.100000)"
fill="#003A97" stroke="#000000">
<path d="M40 450 l0 -410 960 0 960 0 0 410 0 410 -960 0 -960 0 0 -410z
m1860 0 l0 -350 -900 0 -900 0 0 350 0 350 900 0 900 0 0 -350z"/>
<path d="M252 588 c3 -7 24 -68 48 -135 37 -105 46 -123 64 -123 18 0 28 18
66 127 25 70 47 131 49 136 2 5 -7 7 -20 5 -21 -3 -28 -17 -57 -106 -19 -57
-36 -101 -39 -98 -4 3 -20 50 -37 103 -27 84 -35 98 -55 101 -17 3 -22 0 -19
-10z"/>
<path d="M575 591 c-43 -18 -59 -50 -63 -120 -4 -61 -2 -70 23 -99 34 -41 86
-52 130 -27 42 22 55 52 55 125 0 51 -4 64 -27 90 -30 33 -82 46 -118 31z m89
-53 c22 -31 21 -126 -1 -150 -23 -26 -78 -24 -97 4 -24 34 -21 123 4 148 27
27 75 26 94 -2z"/>
<path d="M780 465 c0 -128 1 -135 20 -135 19 0 20 7 20 135 0 128 -1 135 -20
135 -19 0 -20 -7 -20 -135z"/>
<path d="M944 591 c-42 -18 -64 -59 -64 -122 0 -32 5 -70 12 -84 14 -32 56
-55 97 -55 35 0 91 43 91 71 0 27 -33 24 -45 -3 -13 -30 -69 -37 -96 -12 -25
22 -27 119 -3 152 22 31 84 28 99 -5 11 -25 45 -31 45 -9 0 47 -85 88 -136 67z"/>
<path d="M1137 593 c-4 -3 -7 -64 -7 -135 l0 -128 85 0 c78 0 85 2 85 20 0 18
-7 20 -60 20 l-60 0 0 39 0 40 53 3 c38 2 52 7 52 18 0 11 -14 16 -52 18 l-53
3 0 35 0 34 60 0 c53 0 60 2 60 20 0 18 -7 20 -78 20 -43 0 -82 -3 -85 -7z"/>
<path d="M1394 514 c-76 -118 -76 -112 -7 -116 57 -3 58 -3 61 -35 2 -25 8
-33 23 -33 15 0 19 7 19 30 0 18 6 33 15 36 8 4 15 12 15 20 0 8 -7 14 -15 14
-12 0 -15 16 -15 85 0 79 -2 85 -20 85 -15 0 -36 -25 -76 -86z m56 -34 l0 -50
-35 0 c-19 0 -35 3 -35 6 0 8 60 94 65 94 3 0 5 -22 5 -50z"/>
<path d="M1560 496 c0 -96 2 -107 24 -133 21 -24 32 -28 75 -28 39 0 56 5 73
23 21 21 23 32 23 130 0 94 -2 107 -17 110 -16 3 -18 -6 -18 -87 0 -121 -8
-141 -59 -141 -54 0 -61 16 -61 134 0 89 -1 96 -20 96 -19 0 -20 -7 -20 -104z"/>
</g>
</svg>
